<svg xmlns="http://www.w3.org/2000/svg" width="127" height="40" style="shape-rendering:geometricPrecision;text-rendering:geometricPrecision;image-rendering:optimizeQuality;fill-rule:evenodd;clip-rule:evenodd"><path style="opacity:1" fill="#f9f9f9" d="M-.5-.5h127v40H-.5v-40Z"/><path style="opacity:1" fill="#363636" d="M18.5 8.5c-.993 8.484-1.326 17.15-1 26h-5v-26h-10v-5h25v5h-9Z"/><path style="opacity:1" fill="#333" d="M31.5 3.5c1.599-.268 2.932.066 4 1v30h-4v-31Z"/><path style="opacity:1" fill="#393939" d="M61.5 15.5v5h-15c-.31 3.213.023 6.213 1 9 5.475.989 11.142 1.322 17 1v4h-23v-31c7.674-.166 15.34 0 23 .5.88 1.356 1.213 2.856 1 4.5h-18v7h14Z"/><path style="opacity:1" fill="#363636" d="M73.5 3.5a168.87 168.87 0 0 1 15 20c.06.543.393.876 1 1a111.126 111.126 0 0 0 1-21h4c.667 0 1 .333 1 1v30h-5a7603.373 7603.373 0 0 1-15-20c-.06-.543-.393-.876-1-1a111.126 111.126 0 0 0-1 21h-4v-31h4Z"/><path style="opacity:1" fill="#3c3c3c" d="M105.5 2.5c6.309-1.06 11.642.607 16 5-2.209 3.477-4.875 3.643-8 .5-3.675-1.297-6.342-.297-8 3 .601 1.605 1.601 2.938 3 4 5.75.791 10.583 3.291 14.5 7.5 1.186 6.825-1.647 10.992-8.5 12.5-6.477 1.22-11.811-.612-16-5.5.712-1.546 1.878-2.546 3.5-3a27.362 27.362 0 0 0 9 4c6.688-.949 7.855-3.782 3.5-8.5-5.238-.703-9.738-2.87-13.5-6.5-2.482-5.704-.982-10.037 4.5-13Z"/><path style="opacity:1" fill="#8c8c8c" d="M94.5 3.5h-4c.33 7.032-.003 14.032-1 21-.607-.124-.94-.457-1-1 .991-6.813 1.325-13.813 1-21 1.915-.284 3.581.049 5 1Z"/><path style="opacity:1" fill="#cacaca" d="M95.5 4.5c.994 10.153 1.328 20.486 1 31-2.235.295-4.235-.039-6-1h5v-30Z"/><path style="opacity:1" fill="#5b5b5b" d="M31.5 3.5v31h4v-30c.994 10.153 1.328 20.486 1 31h-6c-.328-10.846.006-21.513 1-32Z"/><path style="opacity:1" fill="#858585" d="M18.5 8.5v27c-2.235.295-4.235-.039-6-1h5c-.326-8.85.007-17.516 1-26Z"/><path style="opacity:1" fill="#6f6f6f" d="M73.5 3.5h-4v31h4c-.33-7.032.003-14.032 1-21 .607.124.94.457 1 1-.991 6.813-1.325 13.813-1 21h-6v-33c1.915-.284 3.581.049 5 1Z"/><path style="opacity:1" fill="#8f8f8f" d="M61.5 15.5c.961 1.765 1.295 3.765 1 6h-15v8c-.977-2.787-1.31-5.787-1-9h15v-5Z"/><path style="opacity:1" fill="#818181" d="M47.5 29.5h18v6c-8.184.326-16.184-.008-24-1h23v-4c-5.858.322-11.525-.011-17-1Z"/></svg>